HIERARCHY
ROOT Hips
{
 OFFSET 0.000000 0.000000 0.000000
 CHANNELS 6 Xposition Yposition Zposition Yrotation Xrotation Zrotation
 JOINT Chest
 {
  OFFSET 0.000000 9.585900 0.002600
  CHANNELS 3 Yrotation Xrotation Zrotation
  JOINT Chest2
  {
   OFFSET 0.000000 9.601200 -0.005300
   CHANNELS 3 Yrotation Xrotation Zrotation
   JOINT Chest3
   {
    OFFSET 0.000000 9.561800 0.000000
    CHANNELS 3 Yrotation Xrotation Zrotation
    JOINT Chest4
    {
     OFFSET 0.000000 9.552100 0.000000
     CHANNELS 3 Yrotation Xrotation Zrotation
     JOINT Neck
     {
      OFFSET 0.000000 14.453000 0.000000
      CHANNELS 3 Yrotation Xrotation Zrotation
      JOINT Head
      {
       OFFSET 0.000000 8.936500 -0.011300
       CHANNELS 3 Yrotation Xrotation Zrotation
       End Site
       {
        OFFSET 0.000000 17.073600 -0.006000
       }
      }
     }
     JOINT RightCollar
     {
      OFFSET -2.921100 9.558500 0.000000
      CHANNELS 3 Yrotation Xrotation Zrotation
      JOINT RightShoulder
      {
       OFFSET -13.519700 0.000000 0.000000
       CHANNELS 3 Yrotation Xrotation Zrotation
       JOINT RightElbow
       {
        OFFSET 0.000000 -29.696600 0.000000
        CHANNELS 3 Yrotation Xrotation Zrotation
        JOINT RightWrist
        {
         OFFSET 0.000000 -24.004700 0.000000
         CHANNELS 3 Yrotation Xrotation Zrotation
         End Site
         {
          OFFSET 0.000000 -17.728500 0.000000
         }
        }
       }
      }
     }
     JOINT LeftCollar
     {
      OFFSET 2.921100 9.558500 0.000000
      CHANNELS 3 Yrotation Xrotation Zrotation
      JOINT LeftShoulder
      {
       OFFSET 13.519700 0.000000 0.000000
       CHANNELS 3 Yrotation Xrotation Zrotation
       JOINT LeftElbow
       {
        OFFSET 0.000000 -29.696600 0.000000
        CHANNELS 3 Yrotation Xrotation Zrotation
        JOINT LeftWrist
        {
         OFFSET 0.000000 -24.004700 0.000000
         CHANNELS 3 Yrotation Xrotation Zrotation
         End Site
         {
          OFFSET 0.000000 -17.728500 0.000000
         }
        }
       }
      }
     }
    }
   }
  }
 }
 JOINT RightHip
 {
  OFFSET -7.771700 -0.012900 -0.001300
  CHANNELS 3 Yrotation Xrotation Zrotation
  JOINT RightKnee
  {
   OFFSET 0.000000 -40.869800 0.001200
   CHANNELS 3 Yrotation Xrotation Zrotation
   JOINT RightAnkle
   {
    OFFSET 0.000000 -39.717900 0.002100
    CHANNELS 3 Yrotation Xrotation Zrotation
    JOINT RightToe
    {
     OFFSET 0.000000 -4.965400 11.033500
     CHANNELS 3 Yrotation Xrotation Zrotation
     End Site
     {
      OFFSET 0.000000 -1.423100 5.872300
     }
    }
   }
  }
 }
 JOINT LeftHip
 {
  OFFSET 7.771700 -0.012900 -0.001300
  CHANNELS 3 Yrotation Xrotation Zrotation
  JOINT LeftKnee
  {
   OFFSET 0.000000 -40.869800 0.001200
   CHANNELS 3 Yrotation Xrotation Zrotation
   JOINT LeftAnkle
   {
    OFFSET 0.000000 -39.717900 0.002100
    CHANNELS 3 Yrotation Xrotation Zrotation
    JOINT LeftToe
    {
     OFFSET 0.000000 -4.965400 11.033500
     CHANNELS 3 Yrotation Xrotation Zrotation
     End Site
     {
      OFFSET 0.000000 -1.423100 5.872300
     }
    }
   }
  }
 }
}
MOTION
Frames: 16
Frame Time: 0.008333
0.000000 85.388000 0.000000 0.000000 -5.767877 0.000000 0.000000 11.653817 0.000000 0.000000 -5.885947 0.000000 0.000000 -0.000000 0.000000 0.000000 -0.000000 0.000000 0.000000 12.528835 0.000000 0.000000 0.711642 0.000000 0.000000 -0.000000 0.000000 0.000000 0.000000 -90.000000 0.000000 -2.309062 0.000000 0.000000 2.309062 0.000000 0.000000 -0.000000 0.000000 0.000000 -0.000000 90.000000 0.000000 -2.309062 0.000000 0.000000 2.309062 0.000000 0.000000 8.520406 0.000000 0.000000 1.905762 0.000000 -0.000000 -4.658285 0.000000 0.000000 -0.000000 0.000000 0.000000 8.520406 0.000000 0.000000 1.905762 0.000000 -0.000000 -4.658285 0.000000 0.000000 -0.000000 0.000000
-50.168312 62.079029 13.101285 179.286740 -44.075291 -1.953327 5.181111 25.891174 -2.308133 0.872876 4.248466 -0.442946 1.378953 6.767812 -0.676696 4.184071 21.002600 -1.614459 3.285038 18.007566 3.699450 4.821611 -2.370549 5.737073 5.607567 10.093086 3.788408 -19.180897 -28.105057 -15.674984 -174.540854 -44.502163 -175.150455 27.764112 -9.234671 -29.923809 -7.431353 3.717541 0.047076 -6.354186 -9.082821 21.222585 -179.628337 -71.205832 160.799359 -2.166551 -3.147403 2.844687 2.677823 -22.351771 -7.203000 3.467419 62.796891 -1.302645 0.591353 -10.644914 10.817453 0.030780 -0.196983 0.029844 -0.992246 -12.106386 7.454221 131.729347 83.853003 140.311141 -5.218359 -16.619846 -10.164526 0.330843 -22.161959 -0.329288
-50.169474 62.078144 13.100606 179.293857 -44.070136 -1.960330 5.187548 25.876352 -2.303661 0.871150 4.248123 -0.442547 1.386714 6.746207 -0.676973 4.195361 20.978058 -1.605550 3.267010 18.057169 3.706033 4.814659 -2.353716 5.742555 5.569187 10.182106 3.807899 -18.808657 -27.477402 -15.580204 -174.443118 -44.799869 -175.069538 27.799933 -9.216707 -29.819917 -7.445157 3.781222 0.033404 -6.392854 -9.083833 21.242018 -179.635856 -71.212164 160.840596 -2.171450 -3.154086 2.850156 2.677577 -22.355279 -7.197873 3.466735 62.796162 -1.307597 0.585812 -10.639954 10.822563 0.031454 -0.193580 0.027584 -0.993709 -12.114040 7.458802 131.766099 83.851683 140.350668 -5.224441 -16.618824 -10.163676 0.331053 -22.165397 -0.325480
-50.171365 62.076795 13.100028 179.299478 -44.063396 -1.962954 5.185645 25.866600 -2.304711 0.888993 4.216862 -0.438854 1.379158 6.750429 -0.678253 4.206181 20.955605 -1.594599 3.248097 18.113912 3.711059 4.766866 -2.221331 5.758313 5.533795 10.263235 3.824471 -18.441714 -26.853769 -15.478740 -174.369784 -45.080405 -174.978944 27.845074 -9.227042 -29.719177 -7.453216 3.838511 0.013334 -6.439545 -9.101521 21.281635 -179.680302 -71.235368 160.919678 -2.162295 -3.175884 2.891757 2.679536 -22.361512 -7.197260 3.462301 62.796811 -1.316011 0.583571 -10.635714 10.827630 0.030976 -0.189476 0.025457 -0.995669 -12.122894 7.460410 131.824371 83.852834 140.406540 -5.221732 -16.621454 -10.159467 0.329647 -22.164600 -0.325467
-50.173598 62.075075 13.099577 179.314945 -44.055621 -1.970769 5.185822 25.847635 -2.298738 0.880107 4.224535 -0.441526 1.396761 6.698591 -0.664981 4.198183 20.973729 -1.591530 3.232805 18.167920 3.712145 4.731893 -2.098714 5.769180 5.474837 10.368596 3.928432 -18.009367 -26.307612 -15.459237 -174.328194 -45.339111 -174.868555 27.889372 -9.272098 -29.631246 -7.453701 3.880770 -0.006411 -6.465280 -9.114881 21.304469 -179.704082 -71.244093 160.954690 -2.159390 -3.195959 2.932769 2.672803 -22.373532 -7.202473 3.458892 62.804231 -1.319120 0.590973 -10.619973 10.822718 0.029095 -0.199398 0.028202 -1.004796 -12.133834 7.458519 131.906825 83.855507 140.491199 -5.222129 -16.621927 -10.163548 0.332402 -22.166141 -0.318458
-50.176095 62.073766 13.098479 179.321698 -44.054690 -1.970608 5.194803 25.822371 -2.286726 0.874246 4.231156 -0.445147 1.394739 6.689470 -0.659453 4.200350 20.963772 -1.584502 3.219446 18.217323 3.706112 4.707435 -1.964131 5.784741 5.447720 10.457400 3.978021 -17.643553 -25.745566 -15.371580 -174.311008 -45.576710 -174.738077 27.927813 -9.352520 -29.568017 -7.448964 3.925682 -0.024908 -6.484750 -9.126183 21.313271 -179.681953 -71.240970 160.933499 -2.149985 -3.195531 2.947415 2.672175 -22.375422 -7.209261 3.451800 62.807806 -1.325695 0.595051 -10.617420 10.823384 0.030061 -0.197624 0.027211 -1.003966 -12.136129 7.453658 131.915454 83.854971 140.504778 -5.229317 -16.622876 -10.166266 0.338471 -22.166957 -0.314047
-50.178587 62.072426 13.097303 179.326784 -44.056764 -1.968473 5.190796 25.821292 -2.290057 0.879670 4.214144 -0.438168 1.389669 6.683051 -0.652667 4.200133 20.954956 -1.577265 3.208668 18.267509 3.694850 4.688291 -1.797259 5.808864 5.428546 10.561662 4.014577 -17.306879 -25.218328 -15.253998 -174.292441 -45.800015 -174.600540 27.958105 -9.456568 -29.536420 -7.439444 3.973260 -0.040615 -6.511533 -9.160878 21.330676 -179.710516 -71.260517 160.966952 -2.189618 -3.193071 2.971103 2.673549 -22.374004 -7.214866 3.447558 62.811468 -1.331971 0.593096 -10.617615 10.826119 0.030551 -0.192807 0.025744 -1.001580 -12.134815 7.445189 131.928020 83.854333 140.523363 -5.229241 -16.625375 -10.168425 0.341579 -22.166694 -0.312812
-50.180144 62.071088 13.096175 179.325328 -44.062242 -1.966217 5.195952 25.811492 -2.277497 0.877689 4.191883 -0.420798 1.384746 6.698032 -0.662605 4.198641 20.948488 -1.569104 3.201234 18.381388 3.712901 4.676338 -1.664136 5.803553 5.418206 10.665620 4.041341 -17.007102 -24.717077 -15.115043 -174.247139 -46.010730 -174.472072 27.977917 -9.565123 -29.535560 -7.431484 4.013841 -0.059580 -6.541614 -9.225943 21.363896 -179.781907 -71.310249 161.044869 -2.210597 -3.191050 2.966791 2.675049 -22.369692 -7.216220 3.447811 62.813805 -1.332673 0.592557 -10.619762 10.825859 0.030754 -0.185061 0.023668 -0.995529 -12.128412 7.442341 131.969053 83.853239 140.566815 -5.217933 -16.634409 -10.165711 0.337571 -22.160900 -0.316428
-50.182120 62.069120 13.095780 179.324541 -44.065955 -1.960717 5.193677 25.801095 -2.269797 0.878846 4.190733 -0.415994 1.383719 6.694600 -0.659254 4.198148 20.944675 -1.559267 3.192645 18.485657 3.725886 4.660987 -1.508333 5.810814 5.406785 10.727750 4.040261 -16.745004 -24.191860 -14.948803 -174.163107 -46.211216 -174.360709 27.987454 -9.664376 -29.562242 -7.435880 4.039854 -0.086660 -6.558202 -9.255638 21.386109 -179.645207 -71.318547 160.920817 -2.184336 -3.190082 2.964454 2.680568 -22.368261 -7.222633 3.442489 62.818147 -1.337370 0.594420 -10.621981 10.827691 0.031185 -0.182291 0.022726 -0.993225 -12.125511 7.437800 131.987617 83.851990 140.585502 -5.218155 -16.637967 -10.168258 0.337320 -22.159008 -0.313176
-50.183333 62.066928 13.095879 179.324356 -44.071410 -1.959138 5.193590 25.795195 -2.254590 0.882359 4.185957 -0.412650 1.383758 6.693462 -0.655537 4.200199 20.943620 -1.547515 3.180835 18.574472 3.733370 4.639121 -1.343255 5.829477 5.389102 10.783314 4.039175 -16.501264 -23.681649 -14.771919 -174.032418 -46.407631 -174.270979 27.988433 -9.741610 -29.609566 -7.436896 4.078738 -0.098647 -6.586090 -9.307031 21.402461 -179.671838 -71.345989 160.957397 -2.198749 -3.186361 2.961515 2.684902 -22.364527 -7.222735 3.447955 62.820674 -1.335008 0.590465 -10.624276 10.827996 0.029899 -0.179098 0.024857 -0.989179 -12.123022 7.434615 132.023984 83.848754 140.626266 -5.213949 -16.639872 -10.168699 0.333089 -22.159890 -0.313345
-50.184963 62.067345 13.093610 179.326447 -44.103064 -1.955747 5.204651 25.793579 -2.216117 0.874886 4.207401 -0.432466 1.387806 6.691464 -0.646661 4.204562 20.946026 -1.533397 3.157806 18.623844 3.722257 4.623554 -1.156772 5.864542 5.367889 10.856395 4.056248 -16.266483 -23.220932 -14.592868 -173.846787 -46.605763 -174.208607 27.982588 -9.790585 -29.662942 -7.452498 4.107194 -0.087883 -6.597044 -9.349430 21.390491 -179.684478 -71.363174 160.978050 -2.189496 -3.184630 2.960926 2.687500 -22.331960 -7.228653 3.451970 62.822786 -1.331705 0.597042 -10.626646 10.830038 0.030852 -0.175914 0.021216 -0.986033 -12.091408 7.425682 131.995658 83.843249 140.602635 -5.216065 -16.633164 -10.169010 0.329470 -22.168964 -0.314482
-50.186621 62.065119 13.094506 179.326942 -44.115900 -1.951020 5.213061 25.788630 -2.199252 0.876055 4.210541 -0.429662 1.389598 6.696153 -0.642088 4.201674 20.952371 -1.526257 3.162213 18.719789 3.744324 4.601357 -1.022266 5.873279 5.349623 10.909293 4.072641 -16.040101 -22.771395 -14.394706 -173.607754 -46.810689 -174.176513 27.973980 -9.814213 -29.706719 -7.476383 4.106009 -0.088613 -6.595067 -9.367279 21.393291 -179.524956 -71.369077 160.830707 -2.154832 -3.182421 2.959591 2.687373 -22.322744 -7.235866 3.471008 62.826115 -1.314301 0.593847 -10.625786 10.828757 0.030980 -0.174440 0.019847 -0.983381 -12.081666 7.418430 131.974429 83.839072 140.587402 -5.224118 -16.630178 -10.175871 0.335705 -22.171968 -0.310694
-50.188001 62.062782 13.096070 179.328809 -44.131144 -1.949141 5.221076 25.789328 -2.185134 0.879888 4.210427 -0.422643 1.394708 6.703563 -0.637764 4.181474 20.960996 -1.536580 3.192376 18.822400 3.782021 4.578309 -0.880276 5.887774 5.339241 10.956732 4.103600 -15.801209 -22.345946 -14.186298 -173.338714 -47.022831 -174.169259 27.965092 -9.816277 -29.732470 -7.486462 4.090701 -0.071468 -6.589016 -9.364615 21.378478 -179.381912 -71.361354 160.696069 -2.137300 -3.172590 2.952038 2.684740 -22.310613 -7.240925 3.487141 62.827319 -1.299501 0.593160 -10.624610 10.827034 0.029518 -0.172287 0.018656 -0.982384 -12.069761 7.412842 131.922885 83.832524 140.542106 -5.234966 -16.629262 -10.182364 0.340754 -22.172651 -0.307721
-50.189745 62.066022 13.092553 179.341270 -44.196355 -1.952713 5.230625 25.836403 -2.161643 0.869080 4.225660 -0.433600 1.401754 6.704198 -0.631089 4.203353 20.964848 -1.510299 3.186762 18.923284 3.795702 4.555873 -0.710565 5.917899 5.311151 11.054254 4.135935 -15.555343 -21.990815 -13.973571 -173.075251 -47.235876 -174.175569 27.954482 -9.809205 -29.740780 -7.523585 4.065495 -0.067082 -6.583140 -9.354734 21.359780 -179.264492 -71.353118 160.580595 -2.131947 -3.154049 2.947913 2.676340 -22.240634 -7.243738 3.488950 62.826636 -1.299230 0.593103 -10.623842 10.827712 0.031096 -0.175653 0.017953 -0.987015 -12.002252 7.404278 131.833991 83.827020 140.456799 -5.247349 -16.616048 -10.185476 0.342278 -22.186468 -0.306191
-50.190847 62.065600 13.093657 179.344036 -44.231194 -1.954616 5.249608 25.854247 -2.131953 0.870333 4.228414 -0.432282 1.393916 6.717164 -0.637728 4.253623 20.986690 -1.463962 3.146819 19.020968 3.800217 4.529552 -0.539226 5.950148 5.247569 11.062452 4.113607 -15.301637 -21.570090 -13.736903 -172.845858 -47.442509 -174.182154 27.945246 -9.809832 -29.738734 -7.588201 4.025786 -0.075834 -6.597409 -9.395035 21.397153 -179.285827 -71.392653 160.610529 -2.171725 -3.135819 2.918843 2.672542 -22.206264 -7.244496 3.486546 62.824612 -1.299786 0.598653 -10.620336 10.825923 0.031651 -0.176128 0.017387 -0.988864 -11.968814 7.402419 131.804982 83.822798 140.429997 -5.254249 -16.614096 -10.184908 0.346707 -22.188790 -0.309026
-50.191964 62.064934 13.095998 179.344576 -44.262944 -1.956166 5.262245 25.881672 -2.109211 0.888549 4.236498 -0.413989 1.386294 6.724690 -0.648687 4.244891 20.990938 -1.463822 3.150316 19.128884 3.830854 4.502261 -0.373107 5.981027 5.230526 11.071400 4.115249 -15.034749 -21.162706 -13.504522 -172.673271 -47.637888 -174.173639 27.940040 -9.822755 -29.729758 -7.609379 4.006536 -0.077695 -6.607227 -9.423529 21.419646 -179.257165 -71.411026 160.587564 -2.198829 -3.126857 2.890100 2.672545 -22.174557 -7.244151 3.490395 62.820508 -1.294254 0.598851 -10.616670 10.826592 0.031078 -0.171724 0.015099 -0.989337 -11.938350 7.401963 131.797897 83.821589 140.423436 -5.249697 -16.615092 -10.189579 0.340330 -22.185947 -0.306291
